<?xml version="1.0" encoding="UTF-8"?><svg id="Layer_2" xmlns="http://www.w3.org/2000/svg" viewBox="0 0 68 83"><defs><style>.cls-1{fill:#ceecf4;}.cls-1,.cls-2,.cls-3{stroke-width:0px;}.cls-2{fill:#544c4c;}.cls-4{fill:#e59751;stroke:#e59751;}.cls-4,.cls-5{stroke-miterlimit:10;stroke-width:.25px;}.cls-5{fill:#ff5059;stroke:#ff5059;}.cls-3{fill:#146e8d;}</style></defs><path class="cls-2" d="M61.84,47.52l-1.53,1.41,4.69,5.11,1.53-1.41-4.69-5.11Z"/><path class="cls-1" d="M60.78,49.43l-1.02.94c-.78-.31-3.54-1.31-6.86-.3-3.39,1.04-5.12,3.49-5.58,4.18-.2.81-.4,1.62-.6,2.43-.82.13-1.65.26-2.47.38-5.14,4.91-8.83,8.35-10.74,9.85-.42.33-1.53,1.18-1.58,2.39-.03.91.56,1.61.9,2,3.81,4.5,5.2,5.9,7.97,8.69.36.36,1.01,1.02,1.92,1.06,1.2.06,2.15-.98,2.51-1.36,1.66-1.77,5.41-5.15,10.74-9.85.2-.81.4-1.62.6-2.43.82-.13,1.65-.26,2.47-.38.67-.35,3.37-1.85,4.64-5.2,1.37-3.61.1-6.74-.17-7.37l1.02-.94"/><path class="cls-5" d="M36.13,64.64l11.46,12.49c2.22-2.03,4.43-4.06,6.65-6.1-3.82-4.16-7.64-8.33-11.46-12.49-2.22,2.03-4.43,4.06-6.65,6.1Z"/><path class="cls-2" d="M5.34,23.87l-.74-3.88,7.11-1.35.74,3.88-7.11,1.35Z"/><path class="cls-1" d="M24.35,60.44c-.76-2.47-1.98-9.21-3.57-18.74-1.03-.7-2.05-1.4-3.08-2.09.7-1.03,1.4-2.05,2.09-3.08-.49-2.59-.98-5.17-1.48-7.76-.62-1.02-1.48-2.25-2.68-3.51-1.13-1.19-2.25-2.09-3.2-2.74-2.37.45-4.74.9-7.11,1.35-.64.96-1.36,2.2-1.97,3.72-.65,1.61-1,3.07-1.2,4.25.49,2.59.98,5.17,1.48,7.76,1.03.7,2.05,1.4,3.08,2.09-.7,1.03-1.4,2.05-2.09,3.08.69,3.49,1.32,6.63,1.85,9.35,0,.02.01.03.02.05.02.06.03.13.04.19,0,.04,0,.09.01.13.92,4.73,1.56,8.12,1.76,9.66.06.42.21,1.65,1.14,2.46.83.73,1.89.78,2.83.8,3.33.06,6.95.07,10.34-1.97.68-.41,1.31-.88,1.69-1.66.67-1.37.18-2.86.03-3.35Z"/><path class="cls-3" d="M23.2,55.21c-2.16.54-3.95.73-5.18.79-2.99.16-4.61-.24-7.18.45-1.62.44-2.83,1.15-3.6,1.67.12.66.24,1.32.37,1.98.77-.53,1.99-1.25,3.64-1.7,2.54-.69,4.11-.26,7.18-.45,1.25-.08,3.01-.29,5.11-.84-.11-.64-.22-1.27-.33-1.91Z"/><path class="cls-3" d="M22.21,49.89c-2.03.46-3.73.63-4.92.69-3.1.16-4.78-.24-7.43.45-1.65.43-2.87,1.12-3.67,1.64.13.66.27,1.31.4,1.97.8-.52,2.03-1.22,3.69-1.65,2.63-.69,4.25-.26,7.43-.45,1.2-.07,2.86-.27,4.82-.74-.1-.64-.21-1.28-.31-1.92Z"/><path class="cls-2" d="M20.56,6.06l1.41,1.53,5.11-4.69-1.41-1.53-5.11,4.69Z"/><path class="cls-1" d="M22.48,7.12l.94,1.02c-.31.78-1.31,3.54-.3,6.86,1.04,3.39,3.49,5.12,4.18,5.58.81.2,1.62.4,2.43.6.13.82.26,1.65.38,2.47,4.91,5.14,8.35,8.83,9.85,10.74.33.42,1.18,1.53,2.39,1.58.91.03,1.61-.56,2-.9,4.5-3.81,5.9-5.2,8.69-7.97.36-.36,1.02-1.01,1.06-1.92.06-1.2-.98-2.15-1.36-2.51-1.77-1.66-5.15-5.41-9.85-10.74-.81-.2-1.62-.4-2.43-.6-.13-.82-.26-1.65-.38-2.47-.35-.67-1.85-3.37-5.2-4.64-3.61-1.37-6.74-.1-7.37.17l-.94-1.02"/><path class="cls-4" d="M37.68,31.78c4.16-3.82,8.33-7.64,12.49-11.46-2.03-2.22-4.06-4.43-6.1-6.65-4.16,3.82-8.33,7.64-12.49,11.46,2.03,2.22,4.06,4.43,6.1,6.65Z"/></svg>