<?xml version="1.0" encoding="UTF-8"?><svg id="Layer_2" xmlns="http://www.w3.org/2000/svg" viewBox="0 0 90 129"><defs><style>.cls-1{fill:#75985e;}.cls-1,.cls-2{stroke-width:0px;}.cls-3,.cls-4{fill:none;stroke:#333f27;stroke-miterlimit:10;}.cls-4{stroke-width:.98px;}.cls-2{fill:#87b66c;}</style></defs><path class="cls-2" d="M6.5,9.5c1.67,37.67,3.33,75.33,5,113,8.58,2.22,20.6,4.38,35,4,13.05-.34,23.96-2.66,32-5l6-114c-11.49,1.5-24.22,2.61-38,3-14.52.41-27.93-.05-40-1Z"/><path class="cls-1" d="M3.97,11.5c-.32-2.67-.65-5.33-.97-8,12.92,1.57,27.96,2.53,44.68,2,14.79-.47,28.15-2.02,39.82-4-.33,2.67-.67,5.33-1,8-12.12,1.5-25.43,2.6-39.79,3-15.46.43-29.77-.03-42.74-1Z"/><path class="cls-4" d="M30.28,69.86c-1.21,1.35-3.55,4.39-2.67,7.28,1.27,4.2,9.12,7.51,19.11,5.36"/><path class="cls-3" d="M40.48,80.95c2.19.45,4.38.9,6.57,1.35l-5.02,4.45"/><path class="cls-4" d="M53.13,57.25c-.38-1.78-1.45-5.45-4.3-6.46-4.14-1.46-11.45,2.93-15.61,12.25"/><path class="cls-3" d="M38.15,58.94l-4.97,4.51-.63-6.68"/><path class="cls-4" d="M53.39,81.75c1.78.38,5.57.89,7.65-1.31,3.01-3.2,1.97-11.65-4.87-19.24"/><path class="cls-3" d="M57.92,67.37c-.7-2.12-1.4-4.25-2.11-6.37,2.12.71,4.24,1.42,6.36,2.14"/></svg>